<svg width="49" height="90" viewBox="0 0 49 90" fill="none" xmlns="http://www.w3.org/2000/svg">
<g clip-path="url(#clip0_2053_51)">
<path d="M36.2652 51.6156C36.4555 48.4041 35.1129 45.9451 32.8081 44.1849C30.585 42.466 26.1986 40.5213 19.6489 38.3508C14.3931 36.5921 10.6531 35.1388 8.42897 33.9909C5.84234 32.638 3.82106 30.8166 2.36514 28.5268C0.795178 26.2163 -0.0309142 23.4708 1.37834e-05 20.6664C1.37834e-05 17.4336 1.07132 14.2609 3.21392 11.1483C2.72861 12.7448 2.48596 14.137 2.48596 15.3247C2.48596 18.5178 3.23406 21.3214 4.73026 23.7356C6.26673 26.2334 8.16668 28.1165 10.4301 29.3847C12.6935 30.6948 16.4738 32.1894 21.7709 33.8685C28.685 35.9972 33.6781 38.3513 36.75 40.9306C39.7011 43.4279 41.2809 46.7265 41.1767 51.0008M38.6303 8.44763C35.0278 6.19656 30.6615 5.07051 25.5315 5.06949C21.4477 5.06949 18.0918 5.94984 15.4639 7.71053C12.7947 9.47121 11.4606 11.5796 11.4616 14.0355C11.4616 16.6547 12.5128 18.7217 14.6151 20.2367C16.797 21.874 21.1029 23.8187 27.5327 26.0708C33.5145 28.1628 37.699 29.8613 40.0863 31.1663C42.6326 32.6008 44.7551 34.6479 46.4537 37.3078C48.1512 40.0493 49 43.0991 49 46.4574C49 51.5743 47.1403 55.586 43.421 58.4927C44.7954 56.5688 45.4825 53.8672 45.4825 50.3876C45.4825 47.1129 44.7344 44.2073 43.2382 41.6708C41.6625 39.0904 39.7223 37.0433 37.4176 35.5293C35.0716 33.9735 31.251 32.3158 25.9559 30.5561C17.9906 27.8952 12.7952 25.6233 10.3697 23.7402C7.94416 21.8144 6.7314 18.8247 6.7314 14.7711C6.7314 10.1048 8.59107 6.44124 12.3104 3.78033C16.0303 1.20047 20.315 -0.620881 27.0917 0.237033" fill="white"/>
<path d="M23.0983 0.152704C25.8471 -0.236748 28.6587 0.102748 31.5333 1.17119C34.4593 2.30488 36.9462 4.17924 38.9942 6.79428C42.1155 10.7806 43.1953 15.0059 42.2338 19.4703C42.0686 17.1601 40.9253 14.6496 38.8039 11.9387C36.8043 9.38994 34.4794 7.56757 31.8293 6.47161C29.0937 5.39501 26.4159 4.94795 23.7961 5.13044" fill="white"/>
<path d="M41.1767 50.1475C41.2885 54.3728 39.7011 57.7204 36.75 60.2177C33.6761 62.798 28.683 65.1546 21.7709 67.2874C16.4738 68.9655 12.6935 70.4596 10.4301 71.7697C8.16668 73.0329 6.26673 74.9133 4.73026 77.4111C3.23305 79.8263 2.48495 82.63 2.48596 85.8221C2.48596 87.0088 2.72861 88.4009 3.21392 89.9985C1.07132 86.888 1.37834e-05 83.7158 1.37834e-05 80.4819C-0.0309142 77.6775 0.795178 74.932 2.36514 72.6215C3.82106 70.3286 5.84234 68.5068 8.42897 67.1559C10.6521 66.01 14.3921 64.5572 19.6489 62.7975C26.1936 60.626 30.58 58.6813 32.8081 56.9634C35.1129 55.2032 36.6065 52.6906 36.2652 49.5327" fill="white"/>
</g>
<defs>
<clipPath id="clip0_2053_51">
<rect width="49" height="90" fill="white"/>
</clipPath>
</defs>
</svg>
